<svg xmlns="http://www.w3.org/2000/svg" width="194.579" height="92.238" viewBox="0 0 194.579 92.238"><defs><style>.a{fill:#1a9dd9;}.b{fill:#014d98;}</style></defs><g transform="translate(-752.077 -6.998)"><path class="a" d="M17.7,54.969h0l-11.079,0a34.625,34.625,0,1,1,55.988,0H51.522c.615-.512,1.221-1.064,1.8-1.644a26.482,26.482,0,1,0-37.427,0c.574.574,1.179,1.127,1.8,1.644Z" transform="translate(815.029 6.998)"/><g transform="translate(839.457 25.321)"><path class="b" d="M16.467,1.28a1,1,0,0,1,1.674,0L33.6,24.918a1,1,0,0,1-.837,1.547H1.849a1,1,0,0,1-.837-1.547Z" transform="translate(26.467) rotate(90)"/><path class="a" d="M0,11.853V.847A1,1,0,0,1,1.269-.118l.916.545L24.8,15.214v1.951Z" transform="translate(0 1.002)"/></g><path class="a" d="M7.392,16.452h6.494l8.062-31.978H16.529L10.8,10h-.09L5.287-15.526H-.132Zm17.288,0h4.837v-24.1H24.68Zm0-27.5h4.837v-4.837H24.68Zm10.167,27.5h4.837V2.031c0-4.479,2.642-5.464,4.837-5.464a9.1,9.1,0,0,1,2.015.269V-8.091a3.732,3.732,0,0,0-1.164-.179c-2.732,0-4.524,1.7-5.6,4.389h-.09V-7.643H34.847ZM47.253-4.06h3.314V10.9c0,4.927,1.612,5.822,4.882,5.822a16.02,16.02,0,0,0,3.9-.4V12.735a9.212,9.212,0,0,1-1.747.134c-1.657,0-2.195-.672-2.195-2.553V-4.06h3.941V-7.643H55.4V-14.5H50.567v6.852H47.253ZM74.618,16.452h4.568v-24.1H74.349V9.2a3.781,3.781,0,0,1-3.941,4.031c-2.06,0-3.269-.9-3.269-3.583V-7.643H62.3V9.2c0,6.225,2.419,7.883,6,7.883a6.912,6.912,0,0,0,6.181-3.449h.134ZM100.1-2.358c0-4.255-3.4-5.912-7.659-5.912-6.36,0-8.465,2.822-8.465,7.927h4.568c0-2.329.448-4.613,3.673-4.613,2.553,0,3.314,1.388,3.314,3.583,0,2.105-1.075,2.6-2.822,3.09L88.95,2.748c-3.269,1.075-5.6,2.195-5.6,7.569,0,4.613,2.419,6.763,6.27,6.763a6.269,6.269,0,0,0,6-3.538h.09c.134,2.329,1.926,3.18,4.076,3.18a5.771,5.771,0,0,0,2.374-.582V13a2.014,2.014,0,0,1-.806.134c-.717,0-1.254-.806-1.254-1.7ZM95.534,7.764c0,3.538-1.433,5.733-4.344,5.733-2.015,0-3-1.612-3-3.628,0-1.791.582-3.225,1.971-3.9,1.433-.672,4.12-1.254,5.374-2.239ZM105.7,16.452h4.837V-15.526H105.7Z" transform="translate(752.209 82.157)"/><path d="M-15.114,14.747V-14.185h5.419C-2.35-14.185-.065-9.527-.065.281S-2.887,14.747-9.695,14.747Zm-1.881,1.523h7.3c6.046,0,11.51-2.866,11.51-15.989S-2.932-15.708-9.695-15.708h-7.3ZM7.1,2.924c0-3.046.672-9.092,5.867-9.092,4.837,0,5.509,4.837,5.509,9.092ZM20.358,4.446c0-7.569-1.791-12.137-7.3-12.137-5.285,0-7.838,4.434-7.838,11.6,0,7.972,1.523,12.9,7.569,12.9,5.285,0,7.256-4.613,7.256-8.2h-1.7c0,1.747-.806,6.673-5.733,6.673C7.145,15.285,7.1,8.208,7.1,4.446ZM35.765-.57v-.717c0-2.866-.9-6.4-6.091-6.4-3.717,0-6.4,2.15-6.4,6.046,0,3,1.478,4.7,4.389,5.867l3.449,1.388C33.7,6.641,34.6,8.164,34.6,10.4c0,2.6-1.433,4.882-4.882,4.882-3.9,0-5.24-2.419-5.24-5.733V8.791h-1.7v.627c0,2.732.448,7.39,6.942,7.39,3.717,0,6.763-2.508,6.763-6.449a6.047,6.047,0,0,0-4.255-6.225L28.643,2.789c-2.329-.9-3.493-2.15-3.493-4.613,0-3.09,2.06-4.344,4.524-4.344,3.852,0,4.389,2.822,4.389,4.927V-.57ZM39.8,16.27h1.7v-8.6l3.9-4.613L53.008,16.27h2.15L46.6,1.535l7.256-8.689h-2.15L41.587,5.3H41.5V-15.708H39.8Z" transform="translate(891.499 82.339)"/></g></svg>