<svg xmlns="http://www.w3.org/2000/svg" width="26" height="26" viewBox="0 0 26 26"><defs><style>.a,.b{fill:none;}.b{stroke:#0058b1;stroke-linecap:round;stroke-linejoin:round;stroke-width:3px;}.c{fill:#0058b1;}</style></defs><rect class="a" width="26" height="26"/><path class="b" d="M9620.055,4513.444h-5.728V4501.4h20v12.044h-5.85" transform="translate(-9611.326 -4496.399)"/><path class="c" d="M3.487,6.793V17.026a.4.4,0,0,0,.381.407h1.78a.4.4,0,0,0,.381-.407V6.793H7.494A.821.821,0,0,0,8.033,5.4L5.3,2.488a.73.73,0,0,0-1.079,0L1.483,5.4a.821.821,0,0,0,.539,1.389Z" transform="translate(8.114 6.192)"/></svg>