<svg xmlns="http://www.w3.org/2000/svg" width="26" height="26" viewBox="0 0 26 26"><defs><style>.a{fill:none;}.b{fill:#0058b1;}.c{fill:#fff;}</style></defs><rect class="a" width="26" height="26"/><g transform="translate(-23 -100)"><path class="b" d="M19.952,17H.048A1.026,1.026,0,0,1-1,16V3A1.026,1.026,0,0,1,.048,2H4.042L6.3-.648A1,1,0,0,1,7.058-1h5.885a1,1,0,0,1,.761.352L15.958,2h3.994A1.026,1.026,0,0,1,21,3V16A1.026,1.026,0,0,1,19.952,17ZM10,5a4,4,0,1,0,4,4A4,4,0,0,0,10,5Z" transform="translate(26 105)"/><circle class="c" cx="4" cy="4" r="4" transform="translate(32 110)"/></g></svg>