<svg xmlns="http://www.w3.org/2000/svg" width="29" height="29" viewBox="0 0 29 29"><defs><style>.a{fill:#fff;stroke:#1f8600;stroke-width:2px;}.b{fill:#1f8600;}.c{stroke:none;}.d{fill:none;}</style></defs><g transform="translate(2 1.564)"><g transform="translate(0 0.436)"><g class="a"><circle class="c" cx="12.5" cy="12.5" r="12.5"/><circle class="d" cx="12.5" cy="12.5" r="13.5"/></g></g><path class="b" d="M11.305,12.075a2.656,2.656,0,0,0,2.7-2.623L14.029,3.9a2.711,2.711,0,0,0-5.42,0L8.6,9.452A2.664,2.664,0,0,0,11.305,12.075ZM16.13,9.326a4.759,4.759,0,0,1-4.824,4.585,4.739,4.739,0,0,1-4.8-4.588H4.968a6.324,6.324,0,0,0,5.434,6V18.2h1.807V15.328a6.321,6.321,0,0,0,5.45-6Z" transform="translate(1.423 2.861)"/></g></svg>