<svg xmlns="http://www.w3.org/2000/svg" width="29" height="29" viewBox="0 0 29 29"><defs><style>.a{fill:#fff;}.a,.c{stroke:#f55;stroke-width:2px;}.b{fill:#f55;}.c,.e{fill:none;}.c{stroke-linecap:round;}.d{stroke:none;}</style></defs><g transform="translate(2 2)"><g transform="translate(0 0)"><g class="a" transform="translate(0 0)"><circle class="d" cx="12.5" cy="12.5" r="12.5"/><circle class="e" cx="12.5" cy="12.5" r="13.5"/></g></g><path class="b" d="M10.87,11.549a2.5,2.5,0,0,0,2.515-2.5l.021-5.284a2.524,2.524,0,0,0-5.048,0L8.346,9.053A2.506,2.506,0,0,0,10.87,11.549Zm4.493-2.615a4.483,4.483,0,0,1-8.962,0H4.968a5.97,5.97,0,0,0,5.061,5.712v2.728h1.683V14.643a5.967,5.967,0,0,0,5.076-5.709Z" transform="translate(1.493 2.7)"/><line class="c" x1="19" y2="19" transform="translate(3 3)"/></g></svg>